<?xml version="1.0" standalone="no"?><!DOCTYPE svg PUBLIC "-//W3C//DTD SVG 1.1//EN" "http://www.w3.org/Graphics/SVG/1.1/DTD/svg11.dtd"><svg t="1577210379524" class="icon" viewBox="0 0 1024 1024" version="1.1" xmlns="http://www.w3.org/2000/svg" p-id="5409" xmlns:xlink="http://www.w3.org/1999/xlink" width="200" height="200"><defs><style type="text/css"></style></defs><path d="M209.454545 465.454545C209.454545 446.174787 193.825213 430.545455 174.545455 430.545455 155.265696 430.545455 139.636364 446.174787 139.636364 465.454545 139.636364 659.515885 287.820982 818.636935 477.113055 836.207123 477.098333 836.621117 477.090909 837.036968 477.090909 837.454545L477.090909 954.181818 360.849249 954.181818C341.818182 954.181818 325.818182 969.811149 325.818182 989.090909 325.818182 1008.505083 341.502125 1024 360.849249 1024L663.15075 1024C682.181818 1024 698.181818 1008.370669 698.181818 989.090909 698.181818 969.676735 682.497876 954.181818 663.15075 954.181818L546.909091 954.181818 546.909091 837.454545C546.909091 837.034799 546.901169 836.616439 546.885464 836.199619L546.885464 836.199619C735.839744 818.58217 884.363636 659.322131 884.363636 465.459824L884.363636 465.454545C884.363636 446.174787 868.734306 430.545455 849.454545 430.545455 830.174785 430.545455 814.545455 446.174787 814.545455 465.454545L814.545455 465.827966C814.545455 632.712969 678.751241 768 512 768 344.90876 768 209.454545 632.555678 209.454545 465.827966L209.454545 465.454545ZM279.272727 232.484436C279.272727 104.086827 383.729812 0 512 0 640.531721 0 744.727273 104.524873 744.727273 232.484436L744.727273 465.697382C744.727273 594.094992 640.270187 698.181818 512 698.181818 383.468276 698.181818 279.272727 593.656944 279.272727 465.697382L279.272727 232.484436Z" p-id="5410" fill="#707070"></path></svg>