<?xml version="1.0" standalone="no"?><!DOCTYPE svg PUBLIC "-//W3C//DTD SVG 1.1//EN" "http://www.w3.org/Graphics/SVG/1.1/DTD/svg11.dtd"><svg t="1577208687474" class="icon" viewBox="0 0 1024 1024" version="1.1" xmlns="http://www.w3.org/2000/svg" p-id="12375" xmlns:xlink="http://www.w3.org/1999/xlink" width="200" height="200"><defs><style type="text/css"></style></defs><path d="M322.24 479.210667l-42.453333-42.432 198.826666-198.826667c53.397333-53.376 139.306667-53.568 191.914667-0.981333 52.608 52.608 52.416 138.517333-0.981333 191.914666L455.722667 642.709333l-42.432-42.453333 213.824-213.802667a74.773333 74.773333 0 0 0-0.341334-105.728 74.773333 74.773333 0 0 0-105.728-0.341333l-198.826666 198.826667z" p-id="12376"></path><path d="M699.093333 613.333333l42.453334 42.432-169.429334 169.408c-48.341333 48.341333-129.28 42.282667-181.248-9.664-51.968-51.968-58.026667-132.906667-9.664-181.248l234.346667-234.346666 42.432 42.410666L423.616 676.693333c-22.250667 22.250667-19.050667 65.024 11.008 95.061334 30.037333 30.058667 72.810667 33.258667 95.061333 10.986666l169.429334-169.408zM187.989333 571.029333c-38.933333-38.933333-38.805333-102.613333 0.853334-142.293333 39.68-39.68 103.381333-39.808 142.293333-0.853333 38.954667 38.912 38.826667 102.613333-0.853333 142.293333-39.68 39.658667-103.381333 39.786667-142.293334 0.853333z m43.733334-43.733333c15.744 15.744 40.874667 15.68 56.128 0.426667 15.253333-15.232 15.296-40.362667-0.426667-56.106667-15.765333-15.744-40.896-15.701333-56.149333-0.448-15.232 15.232-15.296 40.384 0.448 56.106667z" p-id="12377"></path><path d="M846.144 489.728l-31.466667 198.784-56.96-101.461333-104.042666-38.506667z" p-id="12378"></path></svg>