<?xml version="1.0" standalone="no"?><!DOCTYPE svg PUBLIC "-//W3C//DTD SVG 1.1//EN" "http://www.w3.org/Graphics/SVG/1.1/DTD/svg11.dtd"><svg t="1577208772225" class="icon" viewBox="0 0 1024 1024" version="1.1" xmlns="http://www.w3.org/2000/svg" p-id="16327" xmlns:xlink="http://www.w3.org/1999/xlink" width="200" height="200"><defs><style type="text/css"></style></defs><path d="M188.61056 402.4832h752l-165.7856-163.5072A94.1056 94.1056 0 0 0 702.22336 204.8h-250.2912a109.184 109.184 0 0 0-82.3552 36.3264z m673.9712-32.0512H273.14176l120.32-106.88a74.6496 74.6496 0 0 1 58.5216-25.6h250.24a61.44 61.44 0 0 1 47.6672 22.4512l1.0752 1.0752zM59.68896 729.6H96.52736l-1.0752-17.1008v-6.4a159.2832 159.2832 0 0 1 318.5664 0v6.4l-1.0752 17.1008h209.152l-1.0752-17.1008v-6.4a159.2832 159.2832 0 0 1 318.5664 0v6.4l-1.0752 17.1008h24.832A60.16 60.16 0 0 0 1024.01536 669.6704v-236.1856a60.16 60.16 0 0 0-60.672-59.7248H60.76416A60.16 60.16 0 0 0 0.01536 433.4848v236.1856A58.5728 58.5728 0 0 0 59.68896 729.6zM620.94336 220.8H565.77536v168.96h55.2704v-168.96zM780.22656 819.2a113.28 113.28 0 1 0-114.8672-113.28A114.8416 114.8416 0 0 0 780.22656 819.2zM248.33536 819.2a113.28 113.28 0 1 0-114.8672-113.28A114.8416 114.8416 0 0 0 248.33536 819.2z" fill="#2c2c2c" p-id="16328"></path></svg>