<?xml version="1.0" standalone="no"?><!DOCTYPE svg PUBLIC "-//W3C//DTD SVG 1.1//EN" "http://www.w3.org/Graphics/SVG/1.1/DTD/svg11.dtd"><svg t="1577210796224" class="icon" viewBox="0 0 1024 1024" version="1.1" xmlns="http://www.w3.org/2000/svg" p-id="6263" xmlns:xlink="http://www.w3.org/1999/xlink" width="200" height="200"><defs><style type="text/css"></style></defs><path d="M875.2 364.5L708.7 202.2c-13-12.7-34.1-12.7-47.1 0L495.1 364.5c-13 12.7-13 33.2 0 45.9 13 12.7 34.1 12.7 47.1 0l109.7-106.9v494.3c0 17.9 14.9 32.5 33.3 32.5s33.3-14.5 33.3-32.5V303.5l109.7 106.9c6.5 6.3 15 9.5 23.5 9.5s17.1-3.2 23.5-9.5c13-12.6 13-33.2 0-45.9z m-371.3 240c-8.5 0-17.1 3.2-23.5 9.5L370.7 720.9V224.3c0-17.9-14.9-32.5-33.3-32.5s-33.3 14.5-33.3 32.5v496.6L194.4 614c-13-12.7-34.1-12.7-47.1 0s-13 33.2 0 45.9l166.5 162.3c13 12.7 34.1 12.7 47.1 0l166.5-162.3c13-12.7 13-33.2 0-45.9-6.5-6.4-15-9.5-23.5-9.5z" p-id="6264"></path></svg>