<?xml version="1.0" standalone="no"?><!DOCTYPE svg PUBLIC "-//W3C//DTD SVG 1.1//EN" "http://www.w3.org/Graphics/SVG/1.1/DTD/svg11.dtd"><svg t="1577214904934" class="icon" viewBox="0 0 1024 1024" version="1.1" xmlns="http://www.w3.org/2000/svg" p-id="7180" xmlns:xlink="http://www.w3.org/1999/xlink" width="200" height="200"><defs><style type="text/css"></style></defs><path d="M938.32469889 340.69148826c-13.86801147-8.76196896-32.19791853-4.82795958-41.25053912 8.84994998-78.84358071 124.74454624-226.3233704 202.19457013-384.92333512 202.19457011-158.59682254 0-306.11588947-77.48615895-384.94690149-202.19299903a30.15707262 30.15707262 0 0 0-52.62680183 1.72034354 30.11779536 30.11779536 0 0 0-3.299289 12.14923902v3.52081267a30.10679773 30.10679773 0 0 0 4.94579133 14.81223657c89.78150931 142.06895571 256.82608279 230.28251722 435.92720099 230.28251718 179.06969636 0 346.11112769-88.2135615 435.90520571-230.28251718 8.46031967-14.05340006 4.13667998-32.29218393-9.73133147-41.05258177z" p-id="7181" fill="#bfbfbf"></path><path d="M356.98054941 751.11047193a34.34716965 34.34716965 0 0 1-5.22858754-0.43204975c-16.42103273-2.86409708-27.40923619-18.49172935-24.54671023-34.91590422l23.42495197-134.28577584c2.87823687-16.42888816 18.52786439-27.41394946 34.95361037-24.53728369 16.42417489 2.87666579 27.40923619 18.52629332 24.5341415 34.95203932l-23.42495195 134.28577583c-2.53888144 14.41946406-15.04632897 24.94733817-29.68888778 24.97875997m306.98784441 0.0015711a30.18063894 30.18063894 0 0 1-29.48778825-24.0769543l-27.80200869-134.33605073c-3.29928901-16.29063225 7.1987344-32.17906546 23.47522683-35.53648478 16.28120571-3.35584825 32.20420288 7.08718699 35.61818145 23.35582399l27.72659637 134.288918a30.12407972 30.12407972 0 0 1-23.42495194 35.61503929 29.39509396 29.39509396 0 0 1-6.16495718 0.628436m-511.65059696-99.1357792a29.58362475 29.58362475 0 0 1-10.33148787-1.85074401 30.09265791 30.09265791 0 0 1-18.01411795-38.63781645l49.05728534-134.38632559c5.7061989-15.64177206 23.01018418-23.69517943 38.65038516-17.98898054 15.64177206 5.70934108 23.69517943 23.01175527 17.98898054 38.65195626l-49.05571425 134.38475451a30.12250863 30.12250863 0 0 1-28.35817456 19.83815346m716.31334949 22.38803253a30.14293281 30.14293281 0 0 1-28.04552767-19.0463241l-53.30079943-134.38475451c-5.5962226-15.35269152 2.05341461-32.36759623 17.24585496-38.38487094 15.19244033-6.00941926 32.41472894 1.16889098 38.83891595 16.19479574l53.30079947 134.38318341a30.18849441 30.18849441 0 0 1-3.09661839 28.06595182 30.17906786 30.17906786 0 0 1-24.95205144 13.21286692" p-id="7182" fill="#bfbfbf"></path></svg>